<?xml version="1.0" encoding="UTF-8" standalone="no"?><!DOCTYPE svg PUBLIC "-//W3C//DTD SVG 1.1//EN" "http://www.w3.org/Graphics/SVG/1.1/DTD/svg11.dtd"><svg width="100%" height="100%" viewBox="0 0 512 512" version="1.1" xmlns="http://www.w3.org/2000/svg" xmlns:xlink="http://www.w3.org/1999/xlink" xml:space="preserve" xmlns:serif="http://www.serif.com/" style="fill-rule:evenodd;clip-rule:evenodd;stroke-linejoin:round;stroke-miterlimit:1.41421;"><ellipse cx="256.076" cy="256.247" rx="242.17" ry="242.031" style="fill:#f3f5f7;"/><path d="M348.61,182.639l-218.722,0c-17.392,0 -31.622,14.23 -31.622,31.623l0,84.326c0,17.393 14.23,31.623 31.622,31.623l218.722,0c17.393,0 31.623,-14.23 31.623,-31.623l0,-84.326c0,-17.393 -14.23,-31.623 -31.623,-31.623Zm13.177,115.949c0,7.247 -5.93,13.176 -13.177,13.176l-218.722,0c-7.247,0 -13.176,-5.929 -13.176,-13.176l0,-84.326c0,-7.247 5.929,-13.176 13.176,-13.176l218.722,0c7.247,0 13.177,5.929 13.177,13.176l0,84.326Zm31.622,-76.025l0,67.724c10.541,0 21.082,-18.248 21.082,-33.862c0,-15.614 -10.541,-33.862 -21.082,-33.862Z" style="fill:#3f8efc;fill-rule:nonzero;"/><path d="M340.705,214.262l-202.911,0c-4.348,0 -7.906,3.557 -7.906,7.905l0,68.516c0,4.348 3.558,7.905 7.906,7.905l202.911,0c4.348,0 7.905,-3.557 7.905,-7.905l0,-68.516c0,-4.348 -3.557,-7.905 -7.905,-7.905Zm-108.834,76.421l5.534,-28.329l-17.92,0l29.778,-40.187l-5.534,28.329l17.92,0l-29.778,40.187Z" style="fill:#3f8efc;fill-rule:nonzero;"/></svg>